<svg width="48" height="48" viewBox="0 0 48 48" fill="none" xmlns="http://www.w3.org/2000/svg">
<circle cx="24" cy="24" r="24" fill="#182442"/>
<g clip-path="url(#clip0_4_455)">
<path d="M29.1864 11C27.8536 11.0922 26.2958 11.9453 25.388 13.0562C24.5599 14.064 23.8786 15.5609 24.1443 17.0156C25.6005 17.0609 27.1052 16.1875 27.977 15.0578C28.7927 14.0062 29.4098 12.5187 29.1864 11Z" fill="black"/>
<path d="M34.4536 19.3875C33.1739 17.7828 31.3755 16.8516 29.6771 16.8516C27.4349 16.8516 26.4865 17.925 24.9287 17.925C23.3224 17.925 22.1021 16.8547 20.1631 16.8547C18.2584 16.8547 16.2303 18.0187 14.9443 20.0094C13.1365 22.8125 13.4459 28.0827 16.3756 32.5718C17.424 34.178 18.824 35.9843 20.6552 35.9999C22.2849 36.0155 22.7443 34.9546 24.9521 34.9436C27.1599 34.9311 27.5786 36.014 29.2052 35.9968C31.038 35.9827 32.5146 33.9812 33.563 32.3749C34.3145 31.2234 34.5942 30.6437 35.177 29.3437C30.938 27.7296 30.2583 21.7015 34.4536 19.3875Z" fill="black"/>
</g>
<defs>
<clipPath id="clip0_4_455">
<rect width="25" height="25" fill="white" transform="translate(12 11)"/>
</clipPath>
</defs>
</svg>
